# xmcd
# 
# Track frame offsets:
#     150
#     21127
#     36425
#     56292
#     74035
#     89850
#     107392
#     118987
#     133012
#     147192
#     161380
#     174715
#     190202
#     203800
#     219272
#     235622
#     255890
#     273405
#     292387
#     317827
# 
# Disc length: 4344
# 
# Revision: 4
# Processed by: cddbd v1.5.2PL0 Copyright (c) Steve Scherf et al.
# Submitted via: fre:ac v1.0.17
# 
DISCID=3110f614
DTITLE=Various Artist - Will The Circle Be Unbroken -- Volume Two
DYEAR=0
DGENRE=Country
TTITLE0=Johnny Cash and The Nitty Gritty Dirt Band - Life's Railway To Heaven
TTITLE1=John Prine and The Nitty Gritty Dirt Band - Grandpa Was A Carpenter
TTITLE2=Levon Helm and The Nitty Gritty Dirt Band - When I Get My Rewards
TTITLE3=New Grass Revival and The Nitty Gritty Dirt Band - Don't You Hear Jerusalem Moan
TTITLE4=Ricky Skaggs and The Nitty Gritty Dirt Band - Little Mountain Church House
TTITLE5=John Denver and The Nitty Gritty Dirt Band - And So It Goes
TTITLE6=The Nitty Gritty Dirt Band - When It's Gone
TTITLE7=Emmylou Harris and The Nitty Gritty Dirt Band - Mary Danced With Soldiers
TTITLE8=Emmylou Harris and The Nitty Gritty Dirt Band - Riding Alone
TTITLE9=Jimmy Martin and The Nitty Gritty Dirt Band - I'm Sittin' On Top Of The World
TTITLE10=Paulette Carlson and The Nitty Gritty Dirt Band - Lovin' On The Side
TTITLE11=Michael Martin Murphey and The Nitty Gritty Dirt Band - Lost River
TTITLE12=The Nitty Gritty Dirt Band - Bayou Jubilee
TTITLE13=The Nitty Gritty Dirt Band with Randy Scruggs - Blues Berry Hill
TTITLE14=The Nitty Gritty Dirt Band - Turn Of The Century
TTITLE15=John Hiatt, Rosanne Cash and The Nitty Gritty Dirt Band - One Step Over The Line
TTITLE16=Chris Hillman, Roger McGuinn and The Nitty Gritty Dirt Band - You Ain't Going Nowhere
TTITLE17=Bruce Hornsby and The Nitty Gritty Dirt Band - The Valley Road
TTITLE18=Johnny Cash, Roy Acuff, Ricky Skaggs, Levon Helm, Emmylou Harris and The Nitty Gritty Dirt Band - Will The Circle Be Unbroken
TTITLE19=Randy Scruggs - Amazing Grace
EXTD=ID3G:   2
EXTT0=
EXTT1=
EXTT2=
EXTT3=
EXTT4=
EXTT5=
EXTT6=
EXTT7=
EXTT8=
EXTT9=
EXTT10=
EXTT11=
EXTT12=
EXTT13=
EXTT14=
EXTT15=
EXTT16=
EXTT17=
EXTT18=
EXTT19=
PLAYORDER=
